<svg version="1.1" xmlns="http://www.w3.org/2000/svg" xmlns:xlink="http://www.w3.org/1999/xlink" x="0px" y="0px"
	 viewBox="0 0 27 42" enable-background="new 0 0 27 42" xml:space="preserve">
	<g>
		<path fill="#151515" d="M16.7,16.3C16.7,16.4,16.7,16.3,16.7,16.3L16.7,16.3z"/>
		<path fill="#B43965" d="M16.4,16.4c-0.1,0-0.4,1-0.2,1c0.5,0,0.6-0.8,0.5-1.1C16.7,16.4,16.4,16.4,16.4,16.4z"/>
		<path fill="#B43965" d="M23.8,17.4c-0.4,0-0.2-0.6-0.3-0.9c0-0.1-0.3,0.6-0.4,0.6c-0.5,0-0.1-0.5-0.2-0.6c-0.2-0.3-0.5,0.2-0.5,0.2
			c0,0-0.1,0-0.1,0c-0.4,0-0.1,0.2-0.3,0.3c0,0.1-0.2,0-0.3,0.1c-0.2,0.2-0.4,0.2-0.5,0.4c-0.2,0.2-0.2,0.4-0.2,0.7
			c0,0.3-0.1,0.3-0.2,0.4c-0.1,0.2,1.1-0.1,1.2-0.1c0.3,0,0.5,0.9,0.4,0.9c0.5-0.2,1,0,1.2-0.6C23.8,18.5,23.9,17.4,23.8,17.4z"/>
		<path fill="#151515" d="M11.9,9.3C11.9,9.3,11.9,9.3,11.9,9.3C11.9,9.3,11.9,9.3,11.9,9.3z"/>
		<path fill="#151515" d="M11.9,9.3C11.9,9.3,11.9,9.3,11.9,9.3C11.9,9.3,11.9,9.3,11.9,9.3z"/>
		<path fill="#151515" d="M11.9,9.3L11.9,9.3L11.9,9.3z"/>
		<path fill="#151515" d="M11.9,9.3C11.9,9.3,11.9,9.3,11.9,9.3L11.9,9.3z"/>
		<path fill="#151515" d="M11.9,9.2C11.9,9.2,11.9,9.3,11.9,9.2C11.9,9.2,11.9,9.2,11.9,9.2z"/>
		<path fill="#B43965" d="M11.9,9.2c0-0.1,0.3-1.1,0.4-1.1c0.4-0.2-0.1-0.5-0.2-0.5c-0.2,0.1-0.2-0.3-0.5-0.3
			c-0.4,0.1-1.2-0.1-1.5,0.2C10.2,7.1,8.7,7,8.7,7.2c0,0,0.3,0.2,0.3,0.3C8.7,7.3,8.5,7.6,8.7,7.9c0.3,0.5,0.7-0.2,1-0.2
			c-0.6,0.4-0.2,0.4,0,0.5c0.1,0,0.2-0.1,0.2,0c0.1,0.1,0,0.7,0,0.8c0,0.4-0.1,0.8,0.2,1.1c0.1,0.1,0.4,0.5,0.5,0.2
			c0.1-0.3,0.1-0.4,0.5-0.6C11.3,9.7,11.9,9.4,11.9,9.2z"/>
		<path fill="#151515" d="M12.2,11.1C12.2,11,12.2,11.1,12.2,11.1L12.2,11.1z"/>
		<path fill="#B43965" d="M13.6,8.3c0.3,0,0.8,0.4,0.9-0.1c0-0.2,0.2-0.2-0.2-0.3c-0.2,0-0.5-0.1-0.6,0C13.6,7.9,13.4,8.3,13.6,8.3z"
			/>
		<path fill="#B43965" d="M15.4,7.8c0.3,0.1,0.7,0.2,0.8-0.2C16.4,7.3,15.2,7.7,15.4,7.8z"/>
		<path fill="#151515" d="M15.4,7.8C15.4,7.8,15.4,7.8,15.4,7.8L15.4,7.8z"/>
		<path fill="#B43965" d="M15.9,8.4L15.9,8.4L15.9,8.4L15.9,8.4L15.9,8.4c0,0.1-0.2,0.5-0.1,0.7c0,0,0.8-0.1,0.8-0.1
			c0-0.1-0.8-0.2-0.2-0.6C17,8.1,15.9,8.1,15.9,8.4z"/>
		<path fill="#151515" d="M15.9,8.4C15.9,8.4,15.9,8.4,15.9,8.4L15.9,8.4z"/>
		<path fill="#151515" d="M17.5,7.4C17.5,7.4,17.6,7.4,17.5,7.4L17.5,7.4z"/>
		<path fill="#B43965" d="M17.5,7.4c0,0,0.7,0.1,0.7,0C18.4,7,17.3,7.3,17.5,7.4z"/>
		<path fill="#B43965" d="M20,7.3c0.1,0.1,0.6-0.2,0.6-0.2C21.7,6.3,19.6,7.3,20,7.3z"/>
		<path fill="#151515" d="M20,7.3C20,7.3,20,7.3,20,7.3L20,7.3z"/>
		<path fill="#151515" d="M21.6,15.8C21.6,15.8,21.6,15.8,21.6,15.8L21.6,15.8z"/>
		<path fill="#151515" d="M21.9,14L21.9,14L21.9,14z"/>
		<path fill="#B43965" d="M21.9,14c0,0.1,0.5,0.8,0.4,0.8c0.4-0.3-0.5-1.3-0.5-1.1C21.7,13.8,21.8,13.9,21.9,14
			C21.9,14,21.8,13.9,21.9,14z"/>
		<path fill="#B43965" d="M24,16.1c0.1-0.3-0.3-0.4-0.5-0.6c0,0,0,0,0,0c-0.3-0.2-0.2,0.1-0.5,0c-0.2-0.1-0.4-0.2-0.6-0.2
			c-0.3,0-0.5,0.2-0.1,0.4c0.1,0,0.2,0.1,0.3,0.1c0.5,0,0.3,0,0.5,0.4c0.1,0.2,1.1,0,1.2,0.3C24.2,16.4,23.9,16.4,24,16.1z"/>
		<path fill="#B43965" d="M22.9,19.4c-0.3,0-0.3,0-0.3,0.3C22.6,20.4,23.3,19.4,22.9,19.4z"/>
		<path fill="#151515" d="M12.1,10.2C12.1,10.1,12.1,10.2,12.1,10.2L12.1,10.2z"/>
		<path fill="#B43965" d="M12.2,9.7c-0.6,0-0.6,0.3-0.1,0.4C12.2,10.5,12.7,9.7,12.2,9.7z"/>
		<path fill="#B43965" d="M8.6,8c0,0-0.1-0.9-0.1-0.9C8.4,7.1,7.7,8.3,8.6,8C8.8,7.9,8.6,8,8.6,8z"/>
		<path fill="#B43965" d="M9.6,9.2c0-0.1-0.7-1.2-0.7-1.2c-0.3,0-0.6,0-0.4,0.4C8.5,8.6,9,8.7,8.7,8.9c0,0-0.1,0.2,0,0.2h0
			c0,0,0.1-0.2,0.1-0.2C8.8,9,8.9,9.2,9,9.3c-0.1,0-0.6,0.1-0.6,0.3c0-0.2,1,0.4,1.1,0.2c0,0-0.1-0.2-0.1-0.2
			C9.7,9.6,9.7,9.6,9.6,9.2C9.5,9.2,9.6,9.2,9.6,9.2z"/>
		<path fill="#151515" d="M3.5,8C3.4,8.2,3.6,8.1,3.5,8L3.5,8z"/>
		<path fill="#B43965" d="M24.6,6.1c-2.5-3.7-6.7-5.9-11.1-5.9C9,0.2,4.7,2.5,2.2,6.3c-2.4,3.7-2.8,8.4-1.3,12.6
			c1.4,4,4.2,7.3,6.7,10.7c2.7,3.7,4.9,7.7,5.9,12.2c1.2-4.5,3.2-8.2,5.9-11.9c2.5-3.4,5.3-6.7,6.7-10.7C27.6,14.9,27.2,9.9,24.6,6.1
			z M3.5,8c0.1,0.4,0.2,0,0.3,0.2C4,8.4,3.3,8.5,3.2,8.5C3.3,8.4,3.4,8.2,3.5,8z M3.1,8.8C3.1,8.8,3.1,8.8,3.1,8.8
			c0.2,0.4,0.5,0.5-0.3,0.7C2.9,9.3,3,9.1,3.1,8.8z M24.9,14.6c-0.1,1.9-0.8,3.7-1.8,5.3c-2.1,3.3-5.8,5.3-9.7,5.3
			c-1.8,0.2-3.9-0.6-5.5-1.4c-1.7-0.9-3.1-2.3-4.2-3.9c-1.1-1.7-1.7-3.6-1.8-5.6c-0.1-1.3,0.1-2.7,0.5-3.9c0.2-0.7,0.2-0.8,0.9-0.8
			c0.9,0-0.2-0.1,0.5-0.4c0.2,0.2,0.4-0.2,0.7,0.3c0.2,0.3,0.2,1,0.3,1.3c0.1,0.4-0.3,0.6-0.4,1C4.6,12,4.8,12.7,4.9,13
			c0,0,0.3,0.5,0.2,0.5c0.4,0,0-0.5,0.1-0.7c0.3,0.7,0.3,1.1,1,1.5c0.2,0.1,0.7,0.6,1,0.6c0.4,0,0.4,0.2,0.2,0.6
			c-0.3,0.5,0.2,1.1,0.6,1.4C8.1,17,8,17.7,8,18.1c0,0.3,0.1,0.6,0,0.9c-0.1,0.3,0.3,0.2,0.2,0.5c-0.1,0.5,1,0.9,0.9,0.6
			c0-0.1-0.4-0.1-0.4-0.3c0-0.1,0.2-0.3,0.1-0.4C8.7,19,8.8,19,9,18.7c0.1-0.1,0.6-0.9,0.6-1.1c0-0.1,0.3-0.5,0.5-0.5
			c0.3,0,0.5-1.3,0.3-1.4c-0.1-0.2-0.4-0.1-0.5-0.2c-0.2-0.1-0.3-0.4-0.5-0.5c-0.2-0.2-0.8-0.5-1.1-0.5c-0.1,0-0.3-0.2-0.4-0.1
			c-0.2,0.1-0.5,0.5-0.7,0.2c-0.2-0.3,0.1-0.3-0.4-0.4C6.7,14,7,13.7,7,13.5c0,0-0.9,0.7-0.8,0c0-0.7,0.7-0.6,1.1-0.3
			c0.2,0.3,0.1-0.1,0.1-0.2c0-0.4,0.4-0.4,0.5-0.7c0.2-0.4,0.6-0.3,0.9-0.6c0.3-0.2,0.1-0.5,0.4-0.6c0,0.2,0.4,0.6,0.5,0.2
			C9.9,11.2,9.3,10,9,10.3c0-0.3-0.2-0.6-0.5-0.6c0,0-0.3,0.9-0.4,1C7.7,10.2,7,10,7.9,9.5c0.3-0.1,0.6-0.3,0.6-0.7
			c0-0.4-0.6-0.4-0.5-0.1c-0.2,0-0.3,0-0.5-0.1C8,8.5,7.3,8.1,7.4,7.8c0.1,0,0.6,0,0.6,0c0.1-0.1-1.2-0.4,0-0.4c0-0.1-0.1,0.3,0,0.3
			C8,7.7,8.3,7,7.6,7.3c0.1-0.3,0-0.2-0.2-0.1C6.8,7.3,7.2,7.3,6.9,7.5C6.2,7.9,6.7,8.4,7.2,8.6c-0.4-0.1-0.6-0.5-1-0.5
			c-0.2,0-0.4,0-0.6,0C5.2,7.9,5,7.3,4.4,7.4C4.3,7.4,4,7.5,3.9,7.6C3.8,7.6,3.9,8,3.6,7.9C7.7,0.8,18.3,0.3,23,7.2
			c-0.6,0-1.2,0.6-2,0.2c-0.4-0.3-0.5,0.9-1,0.4c-0.2-0.2-0.3-0.1-0.5,0.1c-0.2,0.2-0.4,0-0.6,0.1c0.5-1.2-2.1,0.6-2,0.8
			c0.1,0.2-0.5,0.4-0.6,0.4c-0.3,0-0.6,0.5-0.8,0.5c0-0.3-0.9-0.5-1.2-0.5c-0.3,0.1-1.1,1.4-1,1.6c0.1,0.1,0.3,0,0.4,0
			c-0.2,0.4-0.6,0.5-0.8,0.8c0-0.3,0.6-0.5,0.1-1c-0.1-0.4-0.4,0-0.3,0.2c0.2,0.1,0.1,0.2,0,0.3c-0.1-0.1-0.4-0.2-0.4,0
			c0,0.1,0.2,0.1,0.2,0.1c0.1,0,0.2,0,0.2,0c0,0.1,0.3,0.9,0.3,0.9c-0.3,0-0.6-0.2-0.5,0.1c0,0.5,0.3,0.6-0.1,0.9
			c-0.2,0.2-0.4,0.5-0.4,0.8c0,0.4,0.2,1.3,0.7,1.3c0.4,0,0.8,0,1.1,0c0.1,0,0,0.4,0,0.4c-0.1,0.2,0.3,0.5,0.4,0.7
			c0.1,0.3-0.2,0.1-0.2,0.3c0,0.2,0.1,0.5,0.2,0.7c0,0.1,0.3,0.8,0.3,0.9c0.1-0.1,1,0.1,1.1-0.6c0,0,0.5-0.7,0.3-0.7
			c0.6,0,0.2-1.1,0.4-1.1c0.4,0,0.7-0.9,0.7-1.3c0-0.2,0.5-0.6,0.6-0.7c0.1-0.1-0.9-0.3-0.9-0.6c0.1,0,0.8,0.3,1,0.3
			c0.2,0.1,0.3-0.1,0.5,0.2c0.1,0.2,0.2,0.3,0.4,0.1c0,0.3,0.2,1.1,0.5,1.3c0.1-0.1,0.1-0.3,0.2-0.5c0,0,0-0.4,0-0.4
			c0-0.1,0.2-0.2,0.3-0.3c0.2-0.4,0.5,0.2,0.6,0.2c0.4,0.2,0.5,0.8,0.7,1.2c0,0-0.4-0.3-0.5-0.3c-0.1,0,0.6,1.1,0.7,1
			c0.1-0.1,0.1-0.2,0.1-0.4c0.1,0.1,0.5,0.2,0.7,0.2c0,0,0.1,0.1,0.1,0c0-0.1,0-1.5-0.3-0.7c0,0.1-0.4,0.4-0.5,0.4
			c-0.1-0.4-0.5-1-0.5-1.2c0.4,0.6,0.8,0,0.5-0.3c-0.3-0.3,0.3-0.5,0.3-0.5c0.2-0.2,0.4-0.3,0.5-0.7c0.1-0.3-0.6-0.7-0.4-1
			c0.1-0.2,0.6,0.5,0.6,0.5c0.4,0,0.1-0.5,0-0.6c-0.2-0.4,0.2-0.3,0.2-0.6c0-0.1-0.1,0-0.1,0c0-0.1,0.2-0.3,0.3-0.4
			c0.1,0.2,0.2,0.5,0.3,0.7c0.1,0.3-0.6,1.1-0.4,1.2c0,0,0.5-0.4,0.5-0.5c0,0,0.2-1.4,0.3-1.3c0,0-0.3,0.2-0.4,0.2
			c-0.1-0.2,0.2-0.4-0.3-0.4c0.1-0.6-0.4-0.6-0.8-0.6c-0.3-0.6,0.5-0.7,0.7-0.9c0.1,0.3,0.3,0.2,0.3-0.1c-0.1-0.3,0.2-0.2,0.2-0.4
			c0.1,0.4,0,0.7,0.1,1C22.8,9.5,23,10,23.1,10c0.3-0.2-0.4-1.2,0.2-1.2c0.3,0,0.2-0.5,0.2-0.5c0.1-0.2,0.7,1,0.7,1.2
			c0.2,0.5,0.4,1.1,0.5,1.7C24.9,12.2,25,13.4,24.9,14.6z M15.8,13.6c0-0.1-0.1-0.1-0.1-0.2c0.6,0.2,0.2,1,0.9,1
			C16.2,14.8,15.8,13.9,15.8,13.6C15.8,13.6,15.8,13.6,15.8,13.6z M13.9,12.5C13.9,12.5,13.9,12.5,13.9,12.5
			C13.9,12.5,13.9,12.5,13.9,12.5c-0.1-0.2-0.9,0.2-1.1,0.2c0.2-0.1,0.6-0.7,0.7-0.7C14.1,11.9,13.9,12.2,13.9,12.5
			c0,0,0.8-0.1,0.8-0.2c0.4,0.5,1-0.1,0.6,0.8c-0.3-0.3-0.7-0.2-1,0c0,0-0.3-0.1-0.3-0.1C13.7,12.7,14.1,12.8,13.9,12.5z M15.4,13.1
			L15.4,13.1L15.4,13.1c0,0,0.1,0.1,0.1,0.2C15.5,13.2,15.3,13.2,15.4,13.1C15.4,13.1,15.4,13.1,15.4,13.1z"/>
		<path fill="#151515" d="M15.8,13.6L15.8,13.6C15.8,13.6,15.8,13.6,15.8,13.6z"/>
		<path fill="#151515" d="M3.1,8.8C3.1,8.8,3.1,8.8,3.1,8.8C3,9,3.2,8.8,3.1,8.8z"/>
	</g>
</svg>