<svg version="1.1" id="Layer_1" xmlns="http://www.w3.org/2000/svg" xmlns:xlink="http://www.w3.org/1999/xlink" x="0px" y="0px"
	 viewBox="0 0 376 65" enable-background="new 0 0 376 65" xml:space="preserve">
	<g>
		<path fill="#B33864" d="M0.4,42.7V0.1h2v26.8l26-26.8H31L13.1,18.7l18.8,23.9h-2.5L11.7,20l-9.3,9.5v13.2H0.4z"/>
		<path fill="#B33864" d="M38.3,42.7L55.1,0.1h6.7l16.7,42.6h-8.8L65.9,32H51l-3.9,10.6H38.3z M58.5,9l-6.1,17.2h12.1L58.5,9z"/>
		<path fill="#B33864" d="M120,2h-16v40.7H102V2H86V0.1h34V2z"/>
		<path fill="#B33864" d="M165.7,0.1v42.6h-2.1V21.8h-28.3v20.8h-2V0.1h2v19.9h28.3V0.1H165.7z"/>
		<path fill="#B33864" d="M177.6,42.7l16.8-42.6h6.7l16.7,42.6h-8.8L205.2,32h-14.9l-3.9,10.6H177.6z M197.8,9l-6.1,17.2h12.1
			L197.8,9z"/>
		<path fill="#B33864" d="M229.9,42.7V0.1h17.5c1.8,0,3.4,0.4,4.9,1.1c1.5,0.8,2.8,1.8,3.9,3c1.1,1.2,1.9,2.6,2.5,4.2
			s0.9,3.1,0.9,4.7c0,1.6-0.3,3.2-0.8,4.7c-0.5,1.5-1.2,2.8-2.2,4c-0.9,1.2-2.1,2.1-3.3,2.9c-1.3,0.8-2.7,1.2-4.3,1.4l10.7,16.7h-2.4
			l-10.6-16.4h-14.9v16.4H229.9z M231.9,24.3h15.8c1.5,0,2.8-0.3,4-1c1.2-0.6,2.2-1.5,3.1-2.5c0.8-1,1.5-2.2,2-3.6
			c0.5-1.4,0.7-2.7,0.7-4.1c0-1.4-0.3-2.8-0.8-4.2c-0.5-1.3-1.3-2.5-2.2-3.5s-2-1.8-3.2-2.5C250,2.3,248.7,2,247.3,2h-15.4V24.3z"/>
		<path fill="#B33864" d="M275,42.7V0.1h2v42.5H275z"/>
		<path fill="#B33864" d="M296.8,4v38.6h-2V0.1h1.6l31.3,39.3V0.1h2v42.5h-2L296.8,4z"/>
		<path fill="#B33864" d="M375.6,40.7v1.9h-28.1V0.1h27.6V2h-25.6v17.9h22.4v1.9h-22.4v18.9H375.6z"/>
	</g>
	<g>
		<path fill="#454545" d="M67.3,54.8v4.5h5V60h-5v4.7h-0.6V54.2H73v0.6H67.3z"/>
		<path fill="#454545" d="M87,61.7l-1.4,3H85l4.8-10.5h0.7l4.8,10.5h-0.7l-1.4-3H87z M90.1,54.9l-2.8,6.1h5.6L90.1,54.9z"/>
		<path fill="#454545" d="M114.8,55l-0.3,0.6c-0.8-0.5-1.8-0.8-2.7-0.8c-1.7,0-2.7,0.7-2.7,1.8c0,3.2,6.2,1.5,6.1,5.4
			c0,1.6-1.5,2.7-3.6,2.7c-1.4,0-2.8-0.6-3.7-1.5l0.3-0.6c0.9,0.9,2.2,1.4,3.4,1.4c1.8,0,3-0.8,3-2c0-3.3-6.1-1.6-6.1-5.4
			c0-1.5,1.4-2.5,3.4-2.5C112.9,54.2,114,54.5,114.8,55z"/>
		<path fill="#454545" d="M137.7,64.7v-5h-7.1v5H130V54.2h0.6v4.9h7.1v-4.9h0.6v10.5H137.7z"/>
		<path fill="#454545" d="M153.9,64.7V54.2h0.6v10.5H153.9z"/>
		<path fill="#454545" d="M179.9,59.5c0,2.9-2.4,5.3-5.4,5.3c-3,0-5.4-2.4-5.4-5.3s2.4-5.2,5.4-5.2C177.5,54.2,179.9,56.5,179.9,59.5
			z M169.7,59.5c0,2.6,2.2,4.7,4.8,4.7s4.8-2.1,4.8-4.7c0-2.6-2.2-4.6-4.8-4.6S169.7,56.9,169.7,59.5z"/>
		<path fill="#454545" d="M202,64.7l-7-9.5v9.5h-0.6V54.2h0.7l7,9.5v-9.5h0.6v10.5H202z"/>
		<path fill="#454545" d="M239,54.2c2.1,0,3.3,1,3.3,2.6c0,1.3-0.7,2.2-2,2.4c1.6,0.2,2.5,1.2,2.5,2.7c0,1.8-1.4,2.8-3.8,2.8h-4.3
			V54.2H239z M235.4,59h3.6c1.7,0,2.7-0.8,2.7-2.1c0-1.3-1-2.1-2.7-2.1h-3.6V59z M235.4,64.1h3.6c2,0,3.2-0.8,3.2-2.3
			c0-1.4-1.2-2.2-3.2-2.2h-3.6V64.1z"/>
		<path fill="#454545" d="M262.9,64.1v0.6h-5.3V54.2h0.6v9.9H262.9z"/>
		<path fill="#454545" d="M286.9,59.5c0,2.9-2.4,5.3-5.4,5.3s-5.4-2.4-5.4-5.3s2.4-5.2,5.4-5.2S286.9,56.5,286.9,59.5z M276.6,59.5
			c0,2.6,2.2,4.7,4.8,4.7s4.8-2.1,4.8-4.7c0-2.6-2.2-4.6-4.8-4.6S276.6,56.9,276.6,59.5z"/>
		<path fill="#454545" d="M309.3,59.6v3.8c-1,0.8-2.3,1.4-3.7,1.4c-3,0-5.4-2.4-5.4-5.3s2.4-5.2,5.4-5.2c1.4,0,2.7,0.5,3.7,1.4
			l-0.4,0.5c-0.9-0.8-2.1-1.2-3.3-1.2c-2.7,0-4.8,2.1-4.8,4.6c0,2.6,2.2,4.7,4.8,4.7c1.2,0,2.3-0.4,3.1-1.1v-3.5H309.3z"/>
	</g>
</svg>
