<svg id="Logo" xmlns="http://www.w3.org/2000/svg" width="147.594" height="49.656" viewBox="0 0 147.594 49.656">
  <defs>
    <style>
      .cls-1 {
        fill: #ff8a00;
      }

      .cls-1, .cls-2, .cls-3 {
        fill-rule: evenodd;
      }

      .cls-2 {
        fill: #fff;
      }

      .cls-3 {
        fill: #222;
      }
    </style>
  </defs>
  <path id="Shape_1_copy_2" data-name="Shape 1 copy 2" class="cls-1" d="M107.715,33.157A17.664,17.664,0,0,0,113.99,8.706a18.31,18.31,0,0,0-24.87-6.17A17.664,17.664,0,0,0,82.844,26.99c0.141,0.233.29,0.46,0.439,0.684l-1.565,9.307,7.717-3.642A18.4,18.4,0,0,0,107.715,33.157ZM49.038,11.816a5.219,5.219,0,0,1-4.814-3A5.983,5.983,0,0,1,46.4,1.1a5.984,5.984,0,0,1,7.848,2.317,9.1,9.1,0,0,1,1.246,4.745A13.964,13.964,0,0,1,50.337,19.13a4.637,4.637,0,0,1-3.2,1.277,1.188,1.188,0,0,1-.931-0.558,1.336,1.336,0,0,1,.41-1.092C48.941,16.818,49.611,15.009,49.038,11.816Z" transform="translate(0 -0.031)"/>
  <path id="Forma_1_copy_4" data-name="Forma 1 copy 4" class="cls-2" d="M87.212,20.739h5.093l-3.4,7.1H94l3.4-7.1V10.1H87.212V20.739ZM100.794,10.1V20.739h5.093l-3.395,7.1h5.093l3.4-7.1V10.1H100.794Z" transform="translate(0 -0.031)"/>
  <path id="g" class="cls-3" d="M74.469,28.15L66.9,28.01V10.157H66.813l0.034-3.116S65.579,0,58.845.519L58.823,31.181h0.033v3.054a10.467,10.467,0,0,0-.05,1.778h0.05v0.05H66.9V36.023l12.779,0.013S80.007,29.511,74.469,28.15ZM0,2.218L19.682,35.881s7.326-3.825,4.264-12.459L12.9,4.076S7-2.809,0,2.218Zm19.682,0L39.363,35.881s7.326-3.825,4.264-12.459L32.584,4.076S26.68-2.809,19.682,2.218ZM137.345,49.687q1.884-.8,3.741-1.81a13.242,13.242,0,0,0,3.3-2.529,11.714,11.714,0,0,0,2.329-3.726,14.689,14.689,0,0,0,.889-5.457V19.184h-8.267v3.993a12.514,12.514,0,0,1-.392,3.088,11.331,11.331,0,0,1-1.1,2.795,7.724,7.724,0,0,1-1.622,2.049,2.94,2.94,0,0,1-1.962.8,3.4,3.4,0,0,1-2.328-.852,6.431,6.431,0,0,1-1.622-2.449,16.013,16.013,0,0,1-.968-3.86,36.679,36.679,0,0,1-.314-5.031,20.579,20.579,0,0,1,1.6-8.943,5.481,5.481,0,0,1,5.31-3.247,6.705,6.705,0,0,1,3.4,1.011,16.655,16.655,0,0,1,3.244,2.5l4.029-5a11.871,11.871,0,0,0-4.735-3.54,15.191,15.191,0,0,0-5.939-1.2,17.185,17.185,0,0,0-7.246,1.411,13.5,13.5,0,0,0-5.049,3.939,16.93,16.93,0,0,0-2.956,6.016,28.257,28.257,0,0,0-.968,7.586,30.9,30.9,0,0,0,.837,7.533,17.252,17.252,0,0,0,2.433,5.643,10.748,10.748,0,0,0,3.976,3.54,11.779,11.779,0,0,0,5.468,1.224,9.651,9.651,0,0,0,4.709-1.091,7.3,7.3,0,0,0,3.034-3.114v0.373a14.578,14.578,0,0,1-.314,3.167,8.559,8.559,0,0,1-1.02,2.582,8.709,8.709,0,0,1-1.831,2.129,18.565,18.565,0,0,1-2.8,1.916Z" transform="translate(0 -0.031)"/>
</svg>
