<?xml version="1.0" standalone="no"?>
<!DOCTYPE svg PUBLIC "-//W3C//DTD SVG 20010904//EN"
 "http://www.w3.org/TR/2001/REC-SVG-20010904/DTD/svg10.dtd">
<svg version="1.0" xmlns="http://www.w3.org/2000/svg"
 width="260.000000pt" height="260.000000pt" viewBox="0 0 260.000000 260.000000"
 preserveAspectRatio="xMidYMid meet">
<metadata>
Created by potrace 1.11, written by Peter Selinger 2001-2013
</metadata>
<g transform="translate(0.000000,260.000000) scale(0.100000,-0.100000)"
fill="#000000" stroke="none">
<path d="M350 2103 c-14 -2 -39 -15 -55 -28 -26 -20 -30 -30 -30 -72 0 -50 43
-122 580 -968 56 -88 114 -180 129 -205 29 -49 137 -221 213 -339 47 -73 83
-101 131 -101 48 0 47 -1 461 660 105 168 194 310 198 315 20 25 359 571 366
589 14 36 10 86 -9 108 -44 49 -20 48 -1021 47 -516 -1 -949 -4 -963 -6z"/>
</g>
</svg>
