<svg height="512pt" viewBox="0 -20 512.00047 512" width="512pt" xmlns="http://www.w3.org/2000/svg"><path d="m507.085938 127.132812-104.894532-120.277343c-3.796875-4.355469-9.292968-6.855469-15.074218-6.855469h-262.234376c-5.78125 0-11.277343 2.5-15.074218 6.855469l-104.894532 120.277343c-6.511718 7.464844-6.539062 18.660157-.164062 26.160157l235.285156 311.761719c8.003906 10.605468 23.941406 10.585937 31.929688 0l235.285156-311.761719c6.363281-7.484375 6.359375-18.683594-.164062-26.160157zm-111.261719-66.722656 52.273437 59.941406h-70.441406zm-35.613281-20.410156-24.351563 80.351562h-159.71875l-24.347656-80.351562zm-244.03125 20.410156 18.164062 59.941406h-70.441406zm-55.984376 99.945313h86.269532l57.886718 191.007812zm195.804688 223.519531-67.738281-223.523438h135.472656zm51.652344-32.511719 57.882812-191.007812h86.269532zm0 0" fill="#fff" /></svg>