<svg xmlns="http://www.w3.org/2000/svg" width="35.311" height="24.718" viewBox="0 0 35.311 24.718">
  <g id="black-envelope" transform="translate(0 0.001)">
    <g id="Group_3350" data-name="Group 3350" transform="translate(0 0)">
      <path id="Path_886" data-name="Path 886" d="M2.337,5.639,15.056,15.714a3.236,3.236,0,0,0,2.143.621,3.227,3.227,0,0,0,2.142-.621L32.06,5.639c1.019-.8.788-1.46-.5-1.46H2.845C1.551,4.179,1.32,4.837,2.337,5.639Z" transform="translate(0.456 -4.179)" fill="#202020"/>
      <path id="Path_887" data-name="Path 887" d="M33.435,7.511l-13.9,10.553a3.374,3.374,0,0,1-3.758,0L1.876,7.511C.844,6.729,0,7.149,0,8.443V25.757A2.361,2.361,0,0,0,2.354,28.11h30.6a2.361,2.361,0,0,0,2.354-2.354V8.443C35.31,7.149,34.466,6.729,33.435,7.511Z" transform="translate(0 -3.393)" fill="#202020"/>
    </g>
  </g>
</svg>
