<svg xmlns="http://www.w3.org/2000/svg" width="20.619" height="38.138" viewBox="0 0 20.619 38.138">
  <g id="facebook-logo" transform="translate(0 0)">
    <path id="Path_717" data-name="Path 717" d="M41.92.008,36.974,0c-5.556,0-9.147,3.684-9.147,9.386v4.327H22.855a.778.778,0,0,0-.778.778v6.27a.778.778,0,0,0,.778.778h4.973V37.36a.777.777,0,0,0,.778.778h6.488a.778.778,0,0,0,.778-.778V21.539h5.814a.777.777,0,0,0,.778-.778l0-6.27a.778.778,0,0,0-.778-.778H35.87V10.045c0-1.763.42-2.658,2.717-2.658h3.332a.778.778,0,0,0,.777-.778V.786A.778.778,0,0,0,41.92.008Z" transform="translate(-22.077)" fill="#fff"/>
  </g>
</svg>
