<svg xmlns="http://www.w3.org/2000/svg" width="32.122" height="30.696" viewBox="0 0 32.122 30.696">
  <g id="Group_3349" data-name="Group 3349" transform="translate(0 0)">
    <path id="Path_885" data-name="Path 885" d="M59.19,42.787V54.665H52.3V43.583c0-2.783-.994-4.683-3.488-4.683a3.767,3.767,0,0,0-3.532,2.518,4.713,4.713,0,0,0-.228,1.678V54.664H38.169s.092-18.769,0-20.712h6.887v2.935c-.014.023-.033.046-.046.068h.046v-.068a6.838,6.838,0,0,1,6.206-3.421c4.531,0,7.927,2.96,7.927,9.321ZM30.965,23.969a3.589,3.589,0,1,0-.09,7.158h.045a3.59,3.59,0,1,0,.046-7.158Zm-3.488,30.7h6.884V33.953H27.477Z" transform="translate(-27.068 -23.969)" fill="#f1f2f2"/>
  </g>
</svg>
