<svg xmlns="http://www.w3.org/2000/svg" width="163.42" height="33.652" viewBox="0 0 163.42 33.652">
  <path id="Path_2" data-name="Path 2" d="M.94,0V-.47L1.6-.658a1.98,1.98,0,0,0,1.245-.8,3.114,3.114,0,0,0,.4-1.5V-17.672A2.8,2.8,0,0,0,2.914-19.2a1.9,1.9,0,0,0-1.269-.682l-.7-.188v-.47l8.037-2.726.47.47.376,3.2a15.246,15.246,0,0,1,3.549-2.632,8.626,8.626,0,0,1,4.16-1.081,6.385,6.385,0,0,1,3.619.917,5.608,5.608,0,0,1,2.068,2.844,15.187,15.187,0,0,1,3.972-2.75,9.7,9.7,0,0,1,4.16-1.01q3.337,0,4.911,1.6t1.575,5.029V-2.914a2.152,2.152,0,0,0,1.692,2.3l.517.141V0H29.187V-.47l.47-.141A2.16,2.16,0,0,0,30.9-1.457a2.812,2.812,0,0,0,.352-1.5V-17.343a3.914,3.914,0,0,0-.705-2.7,3.026,3.026,0,0,0-2.256-.729,5.527,5.527,0,0,0-2.373.541A11.059,11.059,0,0,0,23.5-18.612a7.481,7.481,0,0,1,.306,1.645q.071.893.071,1.88V-2.914a2.21,2.21,0,0,0,1.692,2.3l.423.141V0h-10.9V-.47l.658-.188A2.211,2.211,0,0,0,16.99-1.48a2.688,2.688,0,0,0,.352-1.48V-17.3a4.139,4.139,0,0,0-.681-2.679,2.92,2.92,0,0,0-2.326-.8,4.8,4.8,0,0,0-2.162.541,10.783,10.783,0,0,0-2.256,1.574V-2.914a2.145,2.145,0,0,0,1.645,2.3l.423.141V0ZM53.674-23.312a10.287,10.287,0,0,1,5.217,1.246A8.5,8.5,0,0,1,62.2-18.683a10.1,10.1,0,0,1,1.152,4.865q0,.517-.047,1.057a4.2,4.2,0,0,1-.188.964H49.115q.047,5.076,1.81,7.308a6.271,6.271,0,0,0,5.241,2.233,8.309,8.309,0,0,0,3.807-.752A9.308,9.308,0,0,0,62.7-5.217l.47.423A10.809,10.809,0,0,1,59.291-.752,11.049,11.049,0,0,1,53.486.7,12.006,12.006,0,0,1,47.564-.729a10.12,10.12,0,0,1-4.042-4.113,13.193,13.193,0,0,1-1.457-6.392,12.114,12.114,0,0,1,1.692-6.557A11.382,11.382,0,0,1,48.1-21.9,11.717,11.717,0,0,1,53.674-23.312Zm-.141.94a3.463,3.463,0,0,0-2.326.823,5.624,5.624,0,0,0-1.5,2.914,26.141,26.141,0,0,0-.588,5.9h8.037q.47-5.123-.376-7.379A3.193,3.193,0,0,0,53.533-22.372ZM75.67.7A9.966,9.966,0,0,1,70.688-.54a8.688,8.688,0,0,1-3.5-3.854,15.091,15.091,0,0,1-1.293-6.7,14.311,14.311,0,0,1,1.457-6.839,9.816,9.816,0,0,1,3.854-4.042,10.517,10.517,0,0,1,5.217-1.34,14.7,14.7,0,0,1,3.149.329A9.689,9.689,0,0,1,82.25-22v-6.11a2.728,2.728,0,0,0-.306-1.457,1.9,1.9,0,0,0-1.292-.658l-.893-.188v-.47l8.554-2.068.517.423-.188,6.58V-2.961a3.11,3.11,0,0,0,.329,1.527,1.848,1.848,0,0,0,1.222.823l.423.141V0L82.579.517l-.423-1.692A11.447,11.447,0,0,1,79.265.188,11.8,11.8,0,0,1,75.67.7ZM78.4-1.034a6.09,6.09,0,0,0,3.619-1.175V-20.868A6.486,6.486,0,0,0,78.443-22q-2.256,0-3.854,2.609t-1.6,8.2q0,5.593,1.5,7.872A4.516,4.516,0,0,0,78.4-1.034ZM101,.7a7.922,7.922,0,0,1-3.36-.7,5.183,5.183,0,0,1-2.4-2.28,8.272,8.272,0,0,1-.823-4.159l.141-12.079a2.5,2.5,0,0,0-.376-1.551,2.046,2.046,0,0,0-1.175-.658l-.564-.188v-.47l8.413-1.645.47.47-.235,6.674V-4.559a2.677,2.677,0,0,0,.869,2.209,3.358,3.358,0,0,0,2.186.705,6.848,6.848,0,0,0,2.35-.376,8.434,8.434,0,0,0,2.068-1.128l.188-15.322A2.659,2.659,0,0,0,108.429-20a1.964,1.964,0,0,0-1.222-.635l-.47-.141v-.47l8.225-1.786.47.47-.141,6.674V-3.149a3.65,3.65,0,0,0,.282,1.6,2.194,2.194,0,0,0,1.222.94l.47.141V0L109.04.47,108.617-2.3a16.732,16.732,0,0,1-3.361,2.138A9.724,9.724,0,0,1,101,.7ZM119.286,0V-.752l12.831-20.915h-7.1a2.713,2.713,0,0,0-1.927.658,7.213,7.213,0,0,0-1.316,1.739l-1.692,3.149h-.47l.329-6.486h18.8v.658L126.195-.94h7.379a3.016,3.016,0,0,0,2.209-.7A7.374,7.374,0,0,0,137.1-3.572l1.645-3.478h.47L138.791,0Zm28.576.7a6.907,6.907,0,0,1-4.583-1.551,5.49,5.49,0,0,1-1.856-4.465,5.278,5.278,0,0,1,2.256-4.066q2.256-1.856,7.1-2.8.752-.141,1.692-.306t1.974-.352v-3.713a9.33,9.33,0,0,0-.775-4.488,2.621,2.621,0,0,0-2.421-1.292,2.286,2.286,0,0,0-1.786.728,4.483,4.483,0,0,0-.846,2.515l-.094.517a4.5,4.5,0,0,1-.987,2.961,2.925,2.925,0,0,1-2.209.94,2.832,2.832,0,0,1-2.021-.752,2.643,2.643,0,0,1-.8-2.021,4.368,4.368,0,0,1,1.339-3.243,8.364,8.364,0,0,1,3.549-1.974,16.727,16.727,0,0,1,4.794-.658,9.353,9.353,0,0,1,6.462,2.045q2.28,2.045,2.279,6.651V-4.23q0,2.115,1.974,2.115h1.034l.423.376A6.942,6.942,0,0,1,162.408,0a6.017,6.017,0,0,1-2.984.611,5.071,5.071,0,0,1-3.266-.963,4.5,4.5,0,0,1-1.575-2.562,19.607,19.607,0,0,1-2.89,2.562A6.439,6.439,0,0,1,147.862.7Zm2.867-2.867a3.638,3.638,0,0,0,1.762-.447A12.584,12.584,0,0,0,154.442-4v-7.9l-.94.188q-.47.094-1.081.188a7.2,7.2,0,0,0-3.454,1.9,4.959,4.959,0,0,0-1.292,3.6,4.121,4.121,0,0,0,.893,2.891A2.84,2.84,0,0,0,150.729-2.162Z" transform="translate(-0.939 32.947)"/>
</svg>
