<svg xmlns="http://www.w3.org/2000/svg" width="14.149" height="17.695" viewBox="0 0 14.149 17.695">
  <g id="pinterest_1_" data-name="pinterest (1)" transform="translate(0 0)">
    <path id="Path_882" data-name="Path 882" d="M80.378,63.781c-4.988,0-7.5,3.463-7.5,6.35,0,1.748.683,3.3,2.15,3.883a.364.364,0,0,0,.526-.254l.214-.817a.482.482,0,0,0-.15-.566,2.867,2.867,0,0,1-.693-1.993,4.9,4.9,0,0,1,5.168-4.868c2.82,0,4.368,1.668,4.368,3.895,0,2.93-1.34,5.4-3.329,5.4a1.589,1.589,0,0,1-1.656-1.959A21.255,21.255,0,0,0,80.4,69.25a1.379,1.379,0,0,0-1.417-1.526c-1.123,0-2.024,1.125-2.024,2.631a3.8,3.8,0,0,0,.335,1.609L75.945,77.5a11.066,11.066,0,0,0-.031,3.862.141.141,0,0,0,.249.058,10.775,10.775,0,0,0,1.9-3.328c.129-.452.739-2.794.739-2.794a3.034,3.034,0,0,0,2.564,1.268c3.374,0,5.663-2.979,5.663-6.966C87.024,66.589,84.387,63.781,80.378,63.781Z" transform="translate(-72.876 -63.781)" fill="#202020"/>
  </g>
</svg>
