<svg xmlns="http://www.w3.org/2000/svg" width="22.48" height="28.116" viewBox="0 0 22.48 28.116">
  <g id="pinterest_1_" data-name="pinterest (1)" transform="translate(0 0)">
    <path id="Path_882" data-name="Path 882" d="M84.8,63.781c-7.926,0-11.92,5.5-11.92,10.089,0,2.778,1.085,5.249,3.416,6.17a.578.578,0,0,0,.835-.4l.34-1.3a.766.766,0,0,0-.239-.9,4.556,4.556,0,0,1-1.1-3.167c0-4.081,3.153-7.735,8.211-7.735,4.48,0,6.94,2.65,6.94,6.188,0,4.656-2.128,8.587-5.289,8.587A2.524,2.524,0,0,1,83.359,78.2c.5-2.044,1.473-4.253,1.473-5.73a2.191,2.191,0,0,0-2.251-2.425c-1.784,0-3.216,1.787-3.216,4.181a6.04,6.04,0,0,0,.533,2.556l-2.147,8.8A17.582,17.582,0,0,0,77.7,91.72a.225.225,0,0,0,.4.093,17.12,17.12,0,0,0,3.011-5.287c.205-.718,1.174-4.44,1.174-4.44A4.821,4.821,0,0,0,86.358,84.1c5.36,0,9-4.733,9-11.068C95.355,68.243,91.166,63.781,84.8,63.781Z" transform="translate(-72.876 -63.781)" fill="#fff"/>
  </g>
</svg>
