<svg xmlns="http://www.w3.org/2000/svg" width="49.492" height="43.068" viewBox="0 0 49.492 43.068">
  <g id="quotations" transform="translate(0 -16.564)">
    <g id="Group_3356" data-name="Group 3356" transform="translate(0 16.565)">
      <g id="Group_3355" data-name="Group 3355">
        <g id="Group_3354" data-name="Group 3354">
          <path id="Path_889" data-name="Path 889" d="M14.841,18.778,13.4,17.761l-.049-.037-.092-.037-1.048-.5.031.074a8.276,8.276,0,0,0-3.168-.7A9.257,9.257,0,0,0,0,25.994a9.261,9.261,0,0,0,9.078,9.429,8.707,8.707,0,0,0,4.407-1.233c-.45,5.041-2.989,12.394-12.3,19.894a3.177,3.177,0,0,0-.53,4.345,2.916,2.916,0,0,0,4.191.555c11.42-9.22,14.274-18.686,14.656-25.01.653-8.086-1.8-12.339-4.043-14.557Z" transform="translate(0 -16.565)" fill="#004eff"/>
          <path id="Path_890" data-name="Path 890" d="M169.48,19.418l-.629-.641-1.43-1.017-.049-.037-.1-.037-1.048-.5.031.074a8.307,8.307,0,0,0-3.174-.7,9.251,9.251,0,0,0-9.066,9.429,9.253,9.253,0,0,0,9.078,9.429,8.707,8.707,0,0,0,4.407-1.233c-.444,5.041-2.983,12.394-12.289,19.894a3.171,3.171,0,0,0-.53,4.345,2.916,2.916,0,0,0,4.191.555c11.426-9.22,14.274-18.686,14.662-25.01C174.189,25.89,171.736,21.637,169.48,19.418Z" transform="translate(-124.151 -16.565)" fill="#004eff"/>
        </g>
      </g>
    </g>
  </g>
</svg>
