<svg height="512pt" viewBox="-38 0 512 512.00013" width="512pt" xmlns="http://www.w3.org/2000/svg"><path d="m435.90625 125.886719c-.039062-7.207031-3.980469-14.003907-10.558594-17.53125l-197.769531-105.917969c-5.9375-3.25-13.21875-3.25-19.15625 0l-197.769531 105.917969c-6.578125 3.527343-10.523438 10.324219-10.558594 17.53125-2.890625 149.714843 60.246094 326.585937 210.136719 384.539062 5.433593 2.097657 10.09375 2.101563 15.539062 0 149.890625-57.953125 213.027344-234.824219 210.136719-384.539062zm-237.890625 335.039062c-76.664063-40.914062-116.183594-116.136719-136.523437-184.933593h136.523437zm0-224.933593h-146.527344c-8.988281-43.304688-10.972656-80.074219-11.359375-98.046876l157.886719-84.5625zm39.96875 224.933593v-184.933593h136.519531c-20.335937 68.796874-59.855468 144.019531-136.519531 184.933593zm146.527344-224.933593h-146.527344v-182.609376l157.882813 84.5625c-.382813 17.972657-2.367188 54.742188-11.355469 98.046876zm0 0" fill="#fff" /></svg>