<svg xmlns="http://www.w3.org/2000/svg" width="26.874" height="25.627" viewBox="0 0 26.874 25.627">
  <g id="star" transform="translate(0 0)">
    <path id="Path_892" data-name="Path 892" d="M14.072.874,17.49,8.965l8.751.752a.69.69,0,0,1,.393,1.208L20,16.676l1.989,8.555a.689.689,0,0,1-1.028.746l-7.521-4.536L5.917,25.978a.689.689,0,0,1-1.028-.746l1.989-8.555L.239,10.924A.69.69,0,0,1,.632,9.715l8.751-.752L12.8.874a.689.689,0,0,1,1.27,0Z" transform="translate(0 -0.452)" fill="#ffb100"/>
  </g>
</svg>
