<svg xmlns="http://www.w3.org/2000/svg" width="21.916" height="17.802" viewBox="0 0 21.916 17.802">
  <g id="Group_3323" data-name="Group 3323" transform="translate(0 0)">
    <g id="Group_3320" data-name="Group 3320" transform="translate(0)">
      <g id="twitter-logo-silhouette">
        <g id="Group_2873" data-name="Group 2873">
          <path id="Path_825" data-name="Path 825" d="M21.917,59.547a8.978,8.978,0,0,1-2.582.708,4.515,4.515,0,0,0,1.976-2.486,9.064,9.064,0,0,1-2.857,1.092,4.5,4.5,0,0,0-7.661,4.1,12.764,12.764,0,0,1-9.266-4.7,4.5,4.5,0,0,0,1.391,6A4.5,4.5,0,0,1,.883,63.7v.056a4.5,4.5,0,0,0,3.606,4.408,4.554,4.554,0,0,1-1.185.157,4.316,4.316,0,0,1-.846-.084,4.5,4.5,0,0,0,4.2,3.122,9.02,9.02,0,0,1-5.583,1.921A9.557,9.557,0,0,1,0,73.22a12.708,12.708,0,0,0,6.891,2.023A12.7,12.7,0,0,0,19.684,62.452l-.015-.582A8.978,8.978,0,0,0,21.917,59.547Z" transform="translate(-0.001 -57.441)" fill="#202020"/>
        </g>
      </g>
    </g>
  </g>
</svg>
