<svg xmlns="http://www.w3.org/2000/svg" width="34.822" height="28.285" viewBox="0 0 34.822 28.285">
  <g id="Group_3323" data-name="Group 3323" transform="translate(0.001 0)">
    <g id="Group_3320" data-name="Group 3320" transform="translate(0)">
      <g id="twitter-logo-silhouette">
        <g id="Group_2873" data-name="Group 2873">
          <path id="Path_825" data-name="Path 825" d="M34.823,60.788a14.265,14.265,0,0,1-4.1,1.125,7.173,7.173,0,0,0,3.14-3.949A14.4,14.4,0,0,1,29.322,59.7,7.149,7.149,0,0,0,17.15,66.21,20.281,20.281,0,0,1,2.427,58.747a7.152,7.152,0,0,0,2.211,9.535,7.144,7.144,0,0,1-3.236-.9v.089a7.151,7.151,0,0,0,5.729,7,7.237,7.237,0,0,1-1.882.25A6.857,6.857,0,0,1,3.9,74.6a7.147,7.147,0,0,0,6.672,4.961A14.332,14.332,0,0,1,1.7,82.611a15.187,15.187,0,0,1-1.7-.1,20.192,20.192,0,0,0,10.95,3.214c13.141,0,20.324-10.884,20.324-20.324l-.024-.925A14.265,14.265,0,0,0,34.823,60.788Z" transform="translate(-0.001 -57.441)" fill="#fff"/>
        </g>
      </g>
    </g>
  </g>
</svg>
