<svg height="511pt" viewBox="1 -75 511.9995 511" width="511pt" xmlns="http://www.w3.org/2000/svg"><path d="m510.066406 171.917969c-42.816406-90.140625-140.175781-171.417969-254.066406-171.417969-128.148438 0-220.261719 100.246094-254.066406 171.417969-2.578125 5.429687-2.578125 11.734375 0 17.164062 42.816406 90.140625 140.175781 171.417969 254.066406 171.417969 128.148438 0 220.261719-100.25 254.066406-171.417969 2.578125-5.429687 2.578125-11.734375 0-17.164062zm-254.066406 148.582031c-92.140625 0-168.535156-60.722656-213.347656-140 44.625-78.953125 120.972656-140 213.347656-140 92.132812 0 168.535156 60.714844 213.347656 140-44.625 78.949219-120.972656 140-213.347656 140zm0-240c-55.140625 0-100 44.859375-100 100s44.859375 100 100 100 100-44.859375 100-100-44.859375-100-100-100zm0 160c-33.082031 0-60-26.917969-60-60 0-33.085938 26.917969-60 60-60 33.085938 0 60 26.914062 60 60 0 33.082031-26.914062 60-60 60zm0 0" fill="#fff"/></svg>